<svg preserveAspectRatio="none" overflow="visible" style="display: block;" width="124" height="32" viewBox="0 0 124 32" fill="none" xmlns="http://www.w3.org/2000/svg">
<g id="logo 1" clip-path="url(#clip0_0_11)">
<path id="Vector" d="M-0.581734 0.350852V24.5405L5.74862 30.8508H17.7049V5.60937L12.0783 0L11.3752 0.350852V0.700994L16.2981 5.60937L5.74862 5.61009L0.122034 0L-0.581734 0.350852ZM13.5556 26.7372H9.69483V14.566H13.5556V26.7372ZM13.681 12.9985H9.56952V9.0256H13.681V12.9985Z" fill="#6A37C3"/>
<path id="Vector_2" d="M24.4821 26.7191H20.6225V14.5473H24.4821V15.9889C24.8425 15.4457 25.3454 15.0279 25.9908 14.7354C26.6361 14.4429 27.336 14.2967 28.0903 14.2967C29.4817 14.2967 30.5796 14.6936 31.3842 15.4875C32.1888 16.273 32.5911 17.3636 32.5911 18.7592V26.7191H28.7315V19.6617C28.7315 18.9514 28.5429 18.3873 28.1657 17.9695C27.7969 17.5516 27.2983 17.3427 26.6697 17.3427C25.9908 17.3427 25.4544 17.5809 25.0605 18.0572C24.6749 18.5252 24.4821 19.1896 24.4821 20.0503V26.7191Z" fill="#6A37C3"/>
<path id="Vector_3" d="M36.7147 26.7191V17.6311H34.2632V14.5473H36.7147V13.1184C36.7147 11.6559 37.1632 10.5194 38.06 9.7088C38.9652 8.89818 40.1553 8.49287 41.6304 8.49287C43.2899 8.49287 44.5555 8.84807 45.4272 9.5584C46.2989 10.2687 46.7347 11.2924 46.7347 12.6295C46.7347 12.6713 46.7305 12.7297 46.7221 12.805C46.7137 12.8719 46.7054 12.9596 46.697 13.0682C46.6886 13.1769 46.6802 13.2772 46.6719 13.3691H43.0762C43.1265 13.2186 43.1516 13.0641 43.1516 12.9052C43.1516 12.5459 43.0343 12.2576 42.7996 12.0404C42.565 11.8147 42.2507 11.7019 41.8567 11.7019C41.488 11.7019 41.182 11.8231 40.939 12.0654C40.6959 12.3078 40.5744 12.6212 40.5744 13.0055V14.5473H43.6671V17.6311H40.5744V26.7191H36.7147Z" fill="#6A37C3"/>
<path id="Vector_4" d="M45.1506 20.6395C45.1506 18.7927 45.7625 17.2759 46.9861 16.0892C48.2182 14.8942 49.7688 14.2967 51.6378 14.2967C53.5069 14.2967 55.0532 14.8942 56.2769 16.0892C57.5089 17.2759 58.125 18.7927 58.125 20.6395C58.125 22.478 57.5132 23.9947 56.2895 25.1897C55.0658 26.3764 53.5153 26.9697 51.6378 26.9697C49.7604 26.9697 48.2098 26.3764 46.9861 25.1897C45.7625 23.9947 45.1506 22.478 45.1506 20.6395ZM53.6116 22.7203C54.1313 22.1938 54.3911 21.5002 54.3911 20.6395C54.3911 19.7787 54.1313 19.0851 53.6116 18.5586C53.092 18.0238 52.4341 17.7564 51.6378 17.7564C50.8416 17.7564 50.1794 18.0238 49.6514 18.5586C49.1318 19.0851 48.872 19.7787 48.872 20.6395C48.872 21.5002 49.1318 22.1938 49.6514 22.7203C50.1794 23.2468 50.8416 23.51 51.6378 23.51C52.4341 23.51 53.092 23.2468 53.6116 22.7203Z" fill="#6A37C3"/>
<path id="Vector_5" d="M60.4509 14.5473H64.1847V16.0641C65.2576 14.8858 66.5441 14.2967 68.0443 14.2967C68.849 14.2967 69.6117 14.4513 70.3325 14.7604C71.0533 15.0613 71.6819 15.4875 72.2183 16.0391C72.7547 16.5823 73.1782 17.2591 73.4882 18.0697C73.8063 18.872 73.966 19.7453 73.966 20.6896C73.966 22.5866 73.392 24.1076 72.2434 25.2524C71.0952 26.3973 69.6536 26.9697 67.9187 26.9697C67.0805 26.9697 66.3388 26.8151 65.6934 26.506C65.048 26.1967 64.5871 25.7956 64.3105 25.3025V31.8083H60.4509V14.5473ZM65.0145 22.946C65.5761 23.4892 66.2843 23.7607 67.1392 23.7607C67.9941 23.7607 68.7023 23.4892 69.2639 22.946C69.8254 22.3944 70.1062 21.6423 70.1062 20.6896C70.1062 19.6951 69.8254 18.918 69.2639 18.358C68.7107 17.7898 68.0025 17.5057 67.1392 17.5057C66.2759 17.5057 65.5677 17.7898 65.0145 18.358C64.4613 18.918 64.1847 19.6951 64.1847 20.6896C64.1847 21.6423 64.4613 22.3944 65.0145 22.946Z" fill="#6A37C3"/>
<path id="Vector_6" d="M84.6519 22.0685L87.9211 23.3596C87.5017 24.4878 86.7978 25.3736 85.8087 26.0171C84.8196 26.6522 83.6212 26.9697 82.2135 26.9697C80.3192 26.9697 78.7473 26.3722 77.4985 25.1772C76.2498 23.9738 75.6254 22.432 75.6254 20.5517C75.6254 19.4068 75.8851 18.358 76.4052 17.4054C76.9325 16.4527 77.6707 15.6964 78.6175 15.1365C79.573 14.5767 80.6416 14.2967 81.8232 14.2967C83.6088 14.2967 85.0166 14.8106 86.0472 15.8385C87.0954 16.8329 87.6191 18.1825 87.6191 19.8873C87.6191 20.3971 87.5688 20.9194 87.4681 21.4543H79.4847C79.5518 22.1061 79.837 22.6367 80.3396 23.0463C80.8509 23.4557 81.4921 23.6604 82.2631 23.6604C82.9006 23.6604 83.4075 23.5268 83.7846 23.2593C84.1617 22.9919 84.4513 22.595 84.6519 22.0685ZM79.4847 18.8846H83.9101C83.9101 18.4082 83.7219 18.0238 83.3448 17.7313C82.9757 17.4388 82.4688 17.2926 81.8232 17.2926C81.3039 17.2926 80.8305 17.4346 80.4031 17.7188C79.9836 17.9945 79.678 18.3831 79.4847 18.8846Z" fill="#6A37C3"/>
<path id="Vector_7" d="M89.4295 20.6896C89.4295 19.7453 89.5849 18.872 89.8949 18.0697C90.2129 17.2591 90.6404 16.5823 91.1772 16.0391C91.7133 15.4875 92.3421 15.0613 93.0627 14.7604C93.7834 14.4513 94.5464 14.2967 95.3509 14.2967C96.1139 14.2967 96.8258 14.4596 97.4881 14.7855C98.1504 15.1031 98.6828 15.5293 99.0848 16.0641V8.74356H102.945V26.7191H99.2102V25.3025C98.8083 25.8374 98.2846 26.2511 97.6391 26.5436C97.0023 26.8277 96.2816 26.9697 95.4764 26.9697C93.7331 26.9697 92.2874 26.3973 91.1393 25.2524C89.9992 24.1076 89.4295 22.5866 89.4295 20.6896ZM99.2102 20.6896C99.2102 19.6951 98.9301 18.918 98.3685 18.358C97.8149 17.7898 97.1066 17.5057 96.2437 17.5057C95.3801 17.5057 94.6718 17.7898 94.1189 18.358C93.566 18.918 93.2889 19.6951 93.2889 20.6896C93.2889 21.6423 93.566 22.3944 94.1189 22.946C94.6806 23.4892 95.3888 23.7607 96.2437 23.7607C97.0986 23.7607 97.8068 23.4892 98.3685 22.946C98.9301 22.3944 99.2102 21.6423 99.2102 20.6896Z" fill="#6A37C3"/>
<path id="Vector_8" d="M105.937 14.5473H109.796V26.7191H105.937V14.5473ZM105.811 12.9805V9.00684H109.922V12.9805H105.811Z" fill="#6A37C3"/>
<path id="Vector_9" d="M112.235 23.1465C112.235 21.8847 112.654 20.9236 113.492 20.2634C114.331 19.6032 115.525 19.2732 117.076 19.2732C117.712 19.2732 118.383 19.3525 119.087 19.5113L119.955 19.7119V19.0977C119.955 18.5127 119.766 18.0572 119.389 17.7313C119.02 17.4054 118.496 17.2425 117.818 17.2425C117.18 17.2425 116.661 17.3887 116.258 17.6812C115.856 17.9737 115.596 18.3748 115.479 18.8846L112.21 18.0196C112.587 16.858 113.262 15.9471 114.234 15.287C115.215 14.6268 116.418 14.2967 117.842 14.2967C119.787 14.2967 121.245 14.7228 122.217 15.5753C123.198 16.4193 123.689 17.6603 123.689 19.2982V26.7191H120.219V25.0519C119.707 25.7538 119.15 26.2511 118.546 26.5436C117.943 26.8277 117.168 26.9697 116.221 26.9697C115.114 26.9697 114.171 26.6145 113.392 25.9042C112.62 25.1939 112.235 24.2747 112.235 23.1465ZM119.955 22.3568V22.2816L119.465 22.0685C118.877 21.8345 118.287 21.7175 117.691 21.7175C117.189 21.7175 116.795 21.8303 116.51 22.0559C116.233 22.2732 116.095 22.5866 116.095 22.9961C116.095 23.3889 116.241 23.698 116.535 23.9237C116.828 24.1409 117.239 24.2496 117.767 24.2496C118.404 24.2496 118.928 24.0783 119.338 23.7356C119.749 23.3847 119.955 22.9251 119.955 22.3568Z" fill="#6A37C3"/>
</g>
<defs>
<clipPath id="clip0_0_11">
<rect width="124" height="32" fill="white"/>
</clipPath>
</defs>
</svg>
