<svg preserveAspectRatio="none" width="100%" height="100%" overflow="visible" style="display: block;" viewBox="0 0 32 32" fill="none" xmlns="http://www.w3.org/2000/svg">
<g id="ai-co-editing">
<path id="Vector" d="M16 4.16667V6.66667M16 6.66667V9.16667M16 6.66667H14M16 6.66667H18M20 6.66667L18.2649 6.08831C17.4687 5.82288 16.8437 5.19804 16.5784 4.40176L16 2.66667L15.4216 4.40176C15.1563 5.19804 14.5313 5.82288 13.7351 6.08831L12 6.66667L13.7351 7.24503C14.5313 7.51045 15.1563 8.13529 15.4216 8.93157L16 10.6667L16.5784 8.93157C16.8437 8.13529 17.4687 7.51045 18.2649 7.24503L20 6.66667Z" stroke="var(--stroke-0, #6A37C3)" stroke-width="1.5" stroke-linecap="round" stroke-linejoin="round"/>
<path id="Vector_2" d="M26 18.6667C27.8409 18.6667 29.3333 17.1743 29.3333 15.3333C29.3333 13.4924 27.8409 12 26 12C24.1591 12 22.6667 13.4924 22.6667 15.3333C22.6667 17.1743 24.1591 18.6667 26 18.6667Z" stroke="var(--stroke-0, #6A37C3)" stroke-width="1.5" stroke-linecap="round" stroke-linejoin="round"/>
<path id="Vector_3" d="M29.3333 29.3333V25.7507C29.3333 23.4941 29.3333 22.3657 28.8912 21.5052C28.5093 20.7621 27.9045 20.1573 27.1615 19.7755C26.3008 19.3333 25.1725 19.3333 22.916 19.3333C22.3275 19.3333 22.0332 19.3333 21.7532 19.2724C21.5092 19.2193 21.274 19.1324 21.0543 19.0139C20.802 18.8779 20.5785 18.6864 20.1317 18.3033L17.0767 15.6848C16.8121 15.458 16.4751 15.3333 16.1267 15.3333C15.3203 15.3333 14.6667 15.9869 14.6667 16.7933V16.9513C14.6667 17.2025 14.7235 17.4507 14.8432 17.6715C15.5731 19.0176 17.004 21.0937 18.9265 22.8509C20.2291 24.0415 20.8803 24.6367 21.1068 25.1507C21.3333 25.6645 21.3333 26.3385 21.3333 27.6864V29.3333" stroke="var(--stroke-0, #6A37C3)" stroke-width="1.5" stroke-linecap="round" stroke-linejoin="round"/>
<path id="Vector_4" d="M2.66667 29.3315V25.7489C2.66667 23.4923 2.66667 22.364 3.10885 21.5033C3.49065 20.7604 4.09552 20.1555 4.83856 19.7737C5.69913 19.3315 6.82744 19.3315 9.08404 19.3315C9.67255 19.3315 9.9668 19.3315 10.2469 19.2707C10.4908 19.2176 10.7261 19.1305 10.9458 19.012C11.0717 18.9441 11.1904 18.8624 11.3333 18.75M10.6667 29.3315V27.6845C10.6667 26.3367 10.6667 25.6627 10.8932 25.1488C11.1197 24.6349 11.771 24.0396 13.0735 22.8491C13.1611 22.7689 13.2478 22.6881 13.3333 22.6068" stroke="var(--stroke-0, #6A37C3)" stroke-width="1.5" stroke-linecap="round" stroke-linejoin="round"/>
<path id="Vector_5" d="M2.66667 15.3333C2.66667 17.1743 4.15905 18.6667 6 18.6667C7.84095 18.6667 9.33333 17.1743 9.33333 15.3333C9.33333 13.4924 7.84095 12 6 12C4.15905 12 2.66667 13.4924 2.66667 15.3333Z" stroke="var(--stroke-0, #6A37C3)" stroke-width="1.5" stroke-linecap="round" stroke-linejoin="round"/>
</g>
</svg>
