<svg width="170" height="44" viewBox="0 0 170 44" fill="none" xmlns="http://www.w3.org/2000/svg">
<path d="M-0.797539 0.482422V33.7432L7.88117 42.4199H24.2728V7.71289L16.5589 0L15.595 0.482422V0.963867L22.3441 7.71289H22.3431L22.3441 7.71387H7.88117L0.167305 0L-0.797539 0.482422ZM18.5843 36.7637H13.2913V20.0283H18.5843V36.7637ZM18.7562 17.873H13.1195V12.4102H18.7562V17.873Z" fill="#44237D"/>
<path d="M33.5642 36.7387H28.2728V20.0026H33.5642V21.9848C34.0583 21.2379 34.7477 20.6633 35.6325 20.2612C36.5173 19.859 37.4768 19.6579 38.5109 19.6579C40.4184 19.6579 41.9236 20.2037 43.0267 21.2953C44.1298 22.3754 44.6814 23.875 44.6814 25.7939V36.7387H39.3899V27.0349C39.3899 26.0582 39.1314 25.2826 38.6143 24.708C38.1087 24.1335 37.4251 23.8462 36.5633 23.8462C35.6325 23.8462 34.8971 24.1737 34.3571 24.8287C33.8285 25.4722 33.5642 26.3857 33.5642 27.5692V36.7387Z" fill="#44237D"/>
<path d="M50.3347 36.7387V24.2427H46.9737V20.0026H50.3347V18.0378C50.3347 16.0269 50.9495 14.4642 52.179 13.3496C53.42 12.235 55.0516 11.6777 57.074 11.6777C59.3491 11.6777 61.0842 12.1661 62.2792 13.1428C63.4743 14.1195 64.0718 15.5271 64.0718 17.3656C64.0718 17.423 64.066 17.5034 64.0545 17.6069C64.043 17.6988 64.0316 17.8194 64.0201 17.9688C64.0086 18.1182 63.9971 18.2561 63.9856 18.3825H59.0561C59.1251 18.1756 59.1595 17.9631 59.1595 17.7447C59.1595 17.2506 58.9987 16.8542 58.6769 16.5555C58.3552 16.2452 57.9243 16.0901 57.3842 16.0901C56.8787 16.0901 56.4592 16.2567 56.126 16.5899C55.7928 16.9232 55.6262 17.3541 55.6262 17.8826V20.0026H59.8662V24.2427H55.6262V36.7387H50.3347Z" fill="#44237D"/>
<path d="M61.9 28.3793C61.9 25.8399 62.7389 23.7543 64.4165 22.1227C66.1056 20.4795 68.2314 19.6579 70.7938 19.6579C73.3562 19.6579 75.4762 20.4795 77.1538 22.1227C78.8429 23.7543 79.6875 25.8399 79.6875 28.3793C79.6875 30.9072 78.8487 32.9927 77.1711 34.6359C75.4934 36.2676 73.3677 37.0834 70.7938 37.0834C68.2199 37.0834 66.0941 36.2676 64.4165 34.6359C62.7389 32.9927 61.9 30.9072 61.9 28.3793ZM73.4998 31.2404C74.2122 30.5165 74.5684 29.5628 74.5684 28.3793C74.5684 27.1957 74.2122 26.242 73.4998 25.5181C72.7874 24.7827 71.8854 24.415 70.7938 24.415C69.7022 24.415 68.7944 24.7827 68.0705 25.5181C67.3581 26.242 67.0019 27.1957 67.0019 28.3793C67.0019 29.5628 67.3581 30.5165 68.0705 31.2404C68.7944 31.9643 69.7022 32.3263 70.7938 32.3263C71.8854 32.3263 72.7874 31.9643 73.4998 31.2404Z" fill="#44237D"/>
<path d="M82.8762 20.0026H87.9952V22.0882C89.466 20.468 91.2298 19.6579 93.2866 19.6579C94.3897 19.6579 95.4354 19.8705 96.4236 20.2956C97.4118 20.7093 98.2736 21.2953 99.009 22.0537C99.7444 22.8006 100.325 23.7313 100.75 24.8459C101.186 25.949 101.405 27.1498 101.405 28.4482C101.405 31.0566 100.618 33.1479 99.0434 34.7221C97.4692 36.2963 95.4928 37.0834 93.1143 37.0834C91.9652 37.0834 90.9483 36.8708 90.0635 36.4457C89.1787 36.0205 88.5468 35.469 88.1676 34.791V43.7364H82.8762V20.0026ZM89.1328 31.5507C89.9027 32.2976 90.8736 32.671 92.0457 32.671C93.2177 32.671 94.1887 32.2976 94.9585 31.5507C95.7284 30.7923 96.1133 29.7581 96.1133 28.4482C96.1133 27.0808 95.7284 26.0122 94.9585 25.2423C94.2001 24.461 93.2292 24.0703 92.0457 24.0703C90.8621 24.0703 89.8912 24.461 89.1328 25.2423C88.3744 26.0122 87.9952 27.0808 87.9952 28.4482C87.9952 29.7581 88.3744 30.7923 89.1328 31.5507Z" fill="#44237D"/>
<path d="M116.055 30.3442L120.537 32.1195C119.962 33.6707 118.997 34.8887 117.641 35.7735C116.285 36.6468 114.642 37.0834 112.712 37.0834C110.115 37.0834 107.96 36.2618 106.248 34.6187C104.536 32.964 103.68 30.844 103.68 28.2586C103.68 26.6844 104.036 25.2423 104.749 23.9324C105.472 22.6225 106.484 21.5826 107.782 20.8127C109.092 20.0429 110.557 19.6579 112.177 19.6579C114.625 19.6579 116.555 20.3646 117.968 21.7779C119.405 23.1453 120.123 25.001 120.123 27.3451C120.123 28.046 120.054 28.7642 119.916 29.4996H108.971C109.063 30.3959 109.454 31.1255 110.143 31.6886C110.844 32.2516 111.723 32.5331 112.78 32.5331C113.654 32.5331 114.349 32.3493 114.866 31.9816C115.383 31.6139 115.78 31.0681 116.055 30.3442ZM108.971 25.9663H115.038C115.038 25.3113 114.78 24.7827 114.263 24.3806C113.757 23.9784 113.062 23.7773 112.177 23.7773C111.465 23.7773 110.816 23.9726 110.23 24.3633C109.655 24.7425 109.236 25.2768 108.971 25.9663Z" fill="#44237D"/>
<path d="M122.605 28.4482C122.605 27.1498 122.818 25.949 123.243 24.8459C123.679 23.7313 124.265 22.8006 125.001 22.0537C125.736 21.2953 126.598 20.7093 127.586 20.2956C128.574 19.8705 129.62 19.6579 130.723 19.6579C131.769 19.6579 132.745 19.882 133.653 20.3301C134.561 20.7668 135.291 21.3528 135.842 22.0882V12.0224H141.134V36.7387H136.014V34.791C135.463 35.5264 134.745 36.0952 133.86 36.4974C132.987 36.8881 131.999 37.0834 130.895 37.0834C128.505 37.0834 126.523 36.2963 124.949 34.7221C123.386 33.1479 122.605 31.0566 122.605 28.4482ZM136.014 28.4482C136.014 27.0808 135.63 26.0122 134.86 25.2423C134.101 24.461 133.13 24.0703 131.947 24.0703C130.763 24.0703 129.792 24.461 129.034 25.2423C128.276 26.0122 127.896 27.0808 127.896 28.4482C127.896 29.7581 128.276 30.7923 129.034 31.5507C129.804 32.2976 130.775 32.671 131.947 32.671C133.119 32.671 134.09 32.2976 134.86 31.5507C135.63 30.7923 136.014 29.7581 136.014 28.4482Z" fill="#44237D"/>
<path d="M145.236 20.0026H150.527V36.7387H145.236V20.0026ZM145.063 17.8482V12.3844H150.699V17.8482H145.063Z" fill="#44237D"/>
<path d="M153.871 31.8265C153.871 30.0914 154.445 28.77 155.594 27.8622C156.744 26.9544 158.381 26.5006 160.507 26.5006C161.38 26.5006 162.299 26.6097 163.264 26.828L164.454 27.1038V26.2593C164.454 25.4549 164.195 24.8287 163.678 24.3806C163.173 23.9324 162.454 23.7084 161.524 23.7084C160.65 23.7084 159.938 23.9094 159.386 24.3116C158.835 24.7138 158.479 25.2653 158.318 25.9663L153.836 24.777C154.353 23.1798 155.278 21.9273 156.611 21.0196C157.956 20.1118 159.605 19.6579 161.558 19.6579C164.224 19.6579 166.223 20.2439 167.556 21.416C168.901 22.5765 169.573 24.2829 169.573 26.535V36.7387H164.816V34.4463C164.115 35.4115 163.351 36.0952 162.523 36.4974C161.696 36.8881 160.633 37.0834 159.335 37.0834C157.818 37.0834 156.525 36.595 155.457 35.6183C154.399 34.6416 153.871 33.3777 153.871 31.8265ZM164.454 30.7406V30.6372L163.782 30.3442C162.977 30.0224 162.167 29.8616 161.351 29.8616C160.662 29.8616 160.122 30.0167 159.731 30.3269C159.352 30.6257 159.162 31.0566 159.162 31.6196C159.162 32.1597 159.363 32.5848 159.766 32.8951C160.168 33.1938 160.731 33.3432 161.455 33.3432C162.328 33.3432 163.046 33.1077 163.609 32.6365C164.172 32.1539 164.454 31.522 164.454 30.7406Z" fill="#44237D"/>
</svg>
